<svg width="16" height="13" viewBox="0 0 16 13" fill="none" xmlns="http://www.w3.org/2000/svg">
<path d="M7.16426 9.53064H8.62169V5.78064H7.16426V9.53064ZM7.89298 4.53064C8.09945 4.53064 8.27264 4.47064 8.41255 4.35064C8.55247 4.23064 8.62218 4.08231 8.62169 3.90564C8.62121 3.72897 8.55125 3.58064 8.41182 3.46064C8.2724 3.34064 8.09945 3.28064 7.89298 3.28064C7.68651 3.28064 7.51356 3.34064 7.37413 3.46064C7.23471 3.58064 7.16475 3.72897 7.16426 3.90564C7.16378 4.08231 7.23374 4.23085 7.37413 4.35127C7.51453 4.47168 7.68748 4.53147 7.89298 4.53064ZM7.89298 12.6556C6.88492 12.6556 5.9376 12.4915 5.05099 12.1631C4.16439 11.8348 3.39317 11.3896 2.73733 10.8275C2.08148 10.2654 1.56239 9.60397 1.18006 8.84314C0.797731 8.08231 0.606322 7.26981 0.605836 6.40564C0.60535 5.54147 0.796759 4.72897 1.18006 3.96814C1.56337 3.20731 2.08245 2.54585 2.73733 1.98376C3.3922 1.42168 4.16342 0.976473 5.05099 0.64814C5.93857 0.319806 6.8859 0.15564 7.89298 0.15564C8.90006 0.15564 9.84739 0.319806 10.735 0.64814C11.6225 0.976473 12.3938 1.42168 13.0486 1.98376C13.7035 2.54585 14.2228 3.20731 14.6066 3.96814C14.9904 4.72897 15.1816 5.54147 15.1801 6.40564C15.1787 7.26981 14.9873 8.08231 14.6059 8.84314C14.2245 9.60397 13.7054 10.2654 13.0486 10.8275C12.3918 11.3896 11.6206 11.835 10.735 12.1638C9.84933 12.4925 8.902 12.6565 7.89298 12.6556ZM7.89298 11.4056C9.52044 11.4056 10.8989 10.9213 12.0284 9.95252C13.1579 8.98377 13.7227 7.80147 13.7227 6.40564C13.7227 5.00981 13.1579 3.82751 12.0284 2.85876C10.8989 1.89001 9.52044 1.40564 7.89298 1.40564C6.26552 1.40564 4.88703 1.89001 3.75753 2.85876C2.62802 3.82751 2.06326 5.00981 2.06326 6.40564C2.06326 7.80147 2.62802 8.98377 3.75753 9.95252C4.88703 10.9213 6.26552 11.4056 7.89298 11.4056Z" fill="#757575"/>
</svg>
