<svg width="25" height="25" viewBox="0 0 25 25" fill="none" xmlns="http://www.w3.org/2000/svg">
<rect width="25" height="25" rx="5" fill="#7E2726"/>
<path d="M7.14499 7.14499C7.34421 6.94602 7.61426 6.83426 7.89582 6.83426C8.17739 6.83426 8.44744 6.94602 8.64666 7.14499L12.5 10.9969L16.3533 7.14499C16.4519 7.04639 16.569 6.96817 16.6978 6.91481C16.8266 6.86145 16.9647 6.83398 17.1042 6.83398C17.2436 6.83398 17.3817 6.86145 17.5105 6.91481C17.6393 6.96817 17.7564 7.04639 17.855 7.14499C17.9536 7.24359 18.0318 7.36065 18.0852 7.48947C18.1385 7.6183 18.166 7.75638 18.166 7.89582C18.166 8.03527 18.1385 8.17334 18.0852 8.30217C18.0318 8.431 17.9536 8.54806 17.855 8.64666L14.0031 12.5L17.855 16.3533C18.0541 16.5525 18.166 16.8225 18.166 17.1042C18.166 17.3858 18.0541 17.6559 17.855 17.855C17.6559 18.0541 17.3858 18.166 17.1042 18.166C16.8225 18.166 16.5525 18.0541 16.3533 17.855L12.5 14.0031L8.64666 17.855C8.44752 18.0541 8.17744 18.166 7.89582 18.166C7.61421 18.166 7.34412 18.0541 7.14499 17.855C6.94586 17.6559 6.83398 17.3858 6.83398 17.1042C6.83398 16.8225 6.94586 16.5525 7.14499 16.3533L10.9969 12.5L7.14499 8.64666C6.94602 8.44744 6.83426 8.17739 6.83426 7.89582C6.83426 7.61426 6.94602 7.34421 7.14499 7.14499Z" fill="white"/>
</svg>
