<svg width="17" height="16" viewBox="0 0 17 16" fill="none" xmlns="http://www.w3.org/2000/svg">
<path fill-rule="evenodd" clip-rule="evenodd" d="M8.37705 0.0189209C8.54088 0.0189209 8.69799 0.076908 8.81384 0.180126C8.92968 0.283343 8.99476 0.423336 8.99476 0.569308V2.17644L10.4114 0.914217C10.5285 0.816997 10.6833 0.764069 10.8434 0.766585C11.0034 0.769101 11.1561 0.826864 11.2692 0.927704C11.3824 1.02854 11.4472 1.16459 11.4501 1.30718C11.4529 1.44976 11.3935 1.58776 11.2844 1.6921L8.99476 3.7322V6.95453L12.1261 5.34373L12.9645 2.55657C12.9855 2.48675 13.0217 2.4213 13.0711 2.36395C13.1205 2.3066 13.182 2.25847 13.2523 2.22232C13.3225 2.18617 13.4001 2.1627 13.4805 2.15326C13.5609 2.14381 13.6427 2.14857 13.721 2.16727C13.7994 2.18596 13.8728 2.21823 13.9372 2.26222C14.0016 2.30621 14.0556 2.36107 14.0962 2.42366C14.1367 2.48625 14.1631 2.55535 14.1737 2.62701C14.1843 2.69867 14.1789 2.77149 14.1579 2.84131L13.6391 4.56585L15.2006 3.76229C15.3424 3.69045 15.5104 3.67151 15.6678 3.70959C15.8252 3.74767 15.9593 3.83968 16.0409 3.96555C16.1224 4.09142 16.1448 4.24092 16.1031 4.38143C16.0614 4.52194 15.959 4.64205 15.8183 4.71556L14.2576 5.51839L16.1931 5.98071C16.3513 6.01857 16.4862 6.11089 16.5681 6.23737C16.6499 6.36384 16.6721 6.51411 16.6296 6.65512C16.5871 6.79613 16.4835 6.91633 16.3415 6.98927C16.1996 7.06221 16.0309 7.08192 15.8727 7.04406L12.7446 6.297L9.61246 7.9078L12.7438 9.5186L15.8719 8.77154C16.0302 8.73379 16.1989 8.75363 16.3409 8.82671C16.4828 8.89978 16.5864 9.02011 16.6288 9.16122C16.6711 9.30232 16.6489 9.45265 16.5669 9.57913C16.4848 9.7056 16.3498 9.79787 16.1914 9.83563L14.2568 10.2972L15.8183 11.1008C15.8891 11.1367 15.9513 11.1847 16.0012 11.242C16.0511 11.2994 16.0878 11.365 16.1092 11.435C16.1305 11.5051 16.1361 11.5782 16.1256 11.6502C16.1151 11.7222 16.0887 11.7916 16.048 11.8544C16.0072 11.9173 15.953 11.9724 15.8882 12.0165C15.8235 12.0605 15.7497 12.0928 15.6709 12.1113C15.5922 12.1299 15.5101 12.1344 15.4293 12.1246C15.3486 12.1147 15.2709 12.0908 15.2006 12.0541L13.6391 11.2505L14.1579 12.9743C14.1789 13.0441 14.1843 13.1169 14.1737 13.1886C14.1631 13.2603 14.1367 13.3294 14.0962 13.3919C14.0556 13.4545 14.0016 13.5094 13.9372 13.5534C13.8728 13.5974 13.7994 13.6296 13.721 13.6483C13.6427 13.667 13.5609 13.6718 13.4805 13.6624C13.4001 13.6529 13.3225 13.6294 13.2523 13.5933C13.182 13.5571 13.1205 13.509 13.0711 13.4517C13.0217 13.3943 12.9855 13.3289 12.9645 13.259L12.1261 10.4719L8.99476 8.86181V12.0834L11.2844 14.1235C11.3434 14.1743 11.3905 14.235 11.4229 14.3021C11.4553 14.3692 11.4724 14.4415 11.4731 14.5145C11.4739 14.5876 11.4583 14.6601 11.4273 14.7277C11.3963 14.7954 11.3504 14.8569 11.2925 14.9086C11.2345 14.9603 11.1655 15.0012 11.0896 15.0289C11.0137 15.0566 10.9324 15.0705 10.8504 15.0699C10.7684 15.0693 10.6873 15.0542 10.6119 15.0254C10.5366 14.9966 10.4684 14.9547 10.4114 14.9021L8.99476 13.6399V15.2463C8.99476 15.3923 8.92968 15.5323 8.81384 15.6355C8.69799 15.7387 8.54088 15.7967 8.37705 15.7967C8.21323 15.7967 8.05611 15.7387 7.94027 15.6355C7.82443 15.5323 7.75935 15.3923 7.75935 15.2463V13.6392L6.34275 14.9014C6.22565 14.9986 6.07077 15.0515 5.91075 15.049C5.75072 15.0465 5.59804 14.9887 5.48486 14.8879C5.37169 14.7871 5.30686 14.651 5.30404 14.5084C5.30121 14.3658 5.36061 14.2278 5.46972 14.1235L7.75935 12.0834V8.86107L4.628 10.4719L3.78957 13.259C3.76859 13.3289 3.73237 13.3943 3.683 13.4517C3.63363 13.509 3.57206 13.5571 3.50182 13.5933C3.43157 13.6294 3.35402 13.6529 3.2736 13.6624C3.19317 13.6718 3.11145 13.667 3.03309 13.6483C2.95473 13.6296 2.88127 13.5974 2.8169 13.5534C2.75254 13.5094 2.69852 13.4545 2.65795 13.3919C2.61738 13.3294 2.59104 13.2603 2.58044 13.1886C2.56984 13.1169 2.57518 13.0441 2.59616 12.9743L3.11504 11.2498L1.55348 12.0541C1.4115 12.127 1.24279 12.1468 1.08447 12.1089C0.926155 12.0711 0.791195 11.9788 0.709283 11.8522C0.62737 11.7257 0.605214 11.5754 0.64769 11.4344C0.690165 11.2933 0.793792 11.173 0.935774 11.1L2.49733 10.2972L0.561857 9.83489C0.481429 9.8179 0.405646 9.7867 0.338999 9.74313C0.272351 9.69957 0.216194 9.64453 0.173855 9.58127C0.131516 9.51802 0.103856 9.44783 0.0925133 9.37488C0.0811707 9.30193 0.0863763 9.22769 0.107822 9.15656C0.129267 9.08543 0.166516 9.01886 0.217363 8.96079C0.268209 8.90272 0.331617 8.85434 0.403832 8.81851C0.476047 8.78267 0.5556 8.76012 0.637776 8.75218C0.719953 8.74424 0.803082 8.75107 0.88224 8.77228L4.01029 9.5186L7.14164 7.9078L4.01029 6.297L0.88224 7.04406C0.803826 7.06276 0.722047 7.06751 0.641572 7.05804C0.561097 7.04858 0.483502 7.02508 0.413218 6.9889C0.342934 6.95272 0.281337 6.90455 0.231944 6.84715C0.182551 6.78976 0.146329 6.72426 0.125346 6.65439C0.104364 6.58452 0.0990313 6.51165 0.109654 6.43995C0.120276 6.36824 0.146645 6.29911 0.187256 6.23648C0.227866 6.17386 0.281922 6.11897 0.346338 6.07496C0.410753 6.03095 0.484267 5.99868 0.562681 5.97998L2.49733 5.51839L0.935774 4.71556C0.865472 4.67942 0.803847 4.6313 0.754417 4.57394C0.704988 4.51658 0.668721 4.4511 0.64769 4.38126C0.626658 4.31141 0.621273 4.23855 0.631841 4.16685C0.642409 4.09515 0.668724 4.026 0.709283 3.96336C0.749842 3.90072 0.803851 3.84581 0.868226 3.80177C0.932601 3.75773 1.00608 3.72541 1.08447 3.70667C1.24279 3.66883 1.4115 3.68857 1.55348 3.76155L3.11421 4.56585L2.59534 2.84204C2.55296 2.70093 2.57523 2.55061 2.65725 2.42413C2.73927 2.29766 2.87431 2.20539 3.03267 2.16763C3.19104 2.12987 3.35975 2.14972 3.5017 2.2228C3.64364 2.29587 3.74719 2.4162 3.78957 2.55731L4.62718 5.34447L7.75935 6.9538V3.7322L5.46972 1.6921C5.36061 1.58776 5.30121 1.44976 5.30404 1.30718C5.30686 1.16459 5.37169 1.02854 5.48486 0.927704C5.59804 0.826864 5.75072 0.769101 5.91075 0.766585C6.07077 0.764069 6.22565 0.816997 6.34275 0.914217L7.75935 2.17644V0.569308C7.75935 0.423336 7.82443 0.283343 7.94027 0.180126C8.05611 0.076908 8.21323 0.0189209 8.37705 0.0189209Z" fill="#888888"/>
</svg>
