<svg width="18" height="16" viewBox="0 0 18 16" fill="none" xmlns="http://www.w3.org/2000/svg">
<path d="M7.90816 2.32813C8.48613 2.41285 9.01152 2.67777 9.39062 3.07564C9.76971 3.4735 9.97784 3.97842 9.97788 4.50032V5.96802H5.03624V4.50032C5.03624 3.73859 5.47111 3.06638 6.13164 2.67157C5.89443 2.48337 5.60121 2.36029 5.2873 2.31716C4.97339 2.27403 4.65217 2.31268 4.36235 2.42846C4.07253 2.54424 3.82645 2.73221 3.65376 2.96974C3.48107 3.20726 3.38914 3.4842 3.38903 3.76721V8.17031H16.5667C16.7852 8.17031 16.9946 8.24762 17.1491 8.38525C17.3036 8.52287 17.3903 8.70953 17.3903 8.90416C17.3903 9.09878 17.3036 9.28544 17.1491 9.42307C16.9946 9.56069 16.7852 9.638 16.5667 9.638V10.3719C16.5669 11.2825 16.2502 12.1709 15.6602 12.9145C15.0702 13.6581 14.2359 14.2204 13.2723 14.524V14.8792C13.2723 15.0738 13.1855 15.2604 13.0311 15.3981C12.8766 15.5357 12.6671 15.613 12.4487 15.613C12.2303 15.613 12.0208 15.5357 11.8663 15.3981C11.7119 15.2604 11.6251 15.0738 11.6251 14.8792V14.775H6.68345V14.8792C6.68345 15.0738 6.59668 15.2604 6.44223 15.3981C6.28777 15.5357 6.07828 15.613 5.85985 15.613C5.64141 15.613 5.43193 15.5357 5.27747 15.3981C5.12302 15.2604 5.03624 15.0738 5.03624 14.8792V14.524C4.07263 14.2204 3.23836 13.6581 2.64835 12.9145C2.05834 12.1709 1.74162 11.2825 1.74182 10.3719V9.638C1.52338 9.638 1.3139 9.56069 1.15944 9.42307C1.00499 9.28544 0.918213 9.09878 0.918213 8.90416C0.918213 8.70953 1.00499 8.52287 1.15944 8.38525C1.3139 8.24762 1.52338 8.17031 1.74182 8.17031V3.76721C1.74178 3.11811 1.98321 2.4873 2.42834 1.97347C2.87346 1.45963 3.49718 1.09175 4.20192 0.92736C4.90666 0.762973 5.65268 0.811357 6.32328 1.06494C6.99388 1.31853 7.55123 1.76228 7.90816 2.32813Z" fill="#888888"/>
</svg>
