<svg width="20" height="17" viewBox="0 0 20 17" fill="none" xmlns="http://www.w3.org/2000/svg">
<path d="M8.86216 5.1695C8.86216 4.40315 8.51507 3.66819 7.89724 3.1263C7.27942 2.5844 6.44147 2.27997 5.56773 2.27997C4.694 2.27997 3.85605 2.5844 3.23823 3.1263C2.6204 3.66819 2.27331 4.40315 2.27331 5.1695C2.27331 5.93586 2.6204 6.67082 3.23823 7.21271C3.85605 7.75461 4.694 8.05904 5.56773 8.05904C6.44147 8.05904 7.27942 7.75461 7.89724 7.21271C8.51507 6.67082 8.86216 5.93586 8.86216 5.1695ZM10.3858 6.13268C9.88823 8.06205 7.91844 9.5038 5.56773 9.5038C2.83954 9.5038 0.626099 7.5624 0.626099 5.1695C0.626099 2.77661 2.83954 0.835205 5.56773 0.835205C7.91844 0.835205 9.88823 2.27696 10.3858 4.20633H12.8498C13.1518 3.91135 13.591 3.72474 14.0783 3.72474H17.6473C18.5567 3.72474 19.2945 4.37187 19.2945 5.1695C19.2945 5.96714 18.5567 6.61427 17.6473 6.61427H14.0783C13.591 6.61427 13.1518 6.42766 12.8498 6.13268H10.3858ZM5.56773 3.24315C6.15022 3.24315 6.70886 3.4461 7.12074 3.80737C7.53262 4.16863 7.76402 4.6586 7.76402 5.1695C7.76402 5.68041 7.53262 6.17038 7.12074 6.53164C6.70886 6.8929 6.15022 7.09586 5.56773 7.09586C4.98524 7.09586 4.42661 6.8929 4.01473 6.53164C3.60285 6.17038 3.37145 5.68041 3.37145 5.1695C3.37145 4.6586 3.60285 4.16863 4.01473 3.80737C4.42661 3.4461 4.98524 3.24315 5.56773 3.24315ZM14.3529 8.05904C14.8093 8.05904 15.1765 8.3811 15.1765 8.78142V9.02221H18.4709C18.9273 9.02221 19.2945 9.34428 19.2945 9.7446C19.2945 10.1449 18.9273 10.467 18.4709 10.467H10.2348C9.77842 10.467 9.41123 10.1449 9.41123 9.7446C9.41123 9.34428 9.77842 9.02221 10.2348 9.02221H13.5293V8.78142C13.5293 8.3811 13.8965 8.05904 14.3529 8.05904ZM10.5094 14.8013V11.4302H18.1964V14.8013C18.1964 15.5989 17.4585 16.246 16.5491 16.246H12.1566C11.2472 16.246 10.5094 15.5989 10.5094 14.8013ZM2.27331 10.467H6.66588C7.57527 10.467 8.31309 11.1141 8.31309 11.9117C8.31309 12.7094 7.57527 13.3565 6.66588 13.3565H6.11681C6.11681 13.8893 5.62607 14.3197 5.01866 14.3197H2.82238C2.21497 14.3197 1.72424 13.8893 1.72424 13.3565V10.9486C1.72424 10.6837 1.97132 10.467 2.27331 10.467ZM6.66588 12.3933C6.96786 12.3933 7.21495 12.1766 7.21495 11.9117C7.21495 11.6469 6.96786 11.4302 6.66588 11.4302H6.11681V12.3933H6.66588ZM1.4497 14.8013H7.48948C7.9459 14.8013 8.31309 15.1233 8.31309 15.5237C8.31309 15.924 7.9459 16.246 7.48948 16.246H1.4497C0.99329 16.246 0.626099 15.924 0.626099 15.5237C0.626099 15.1233 0.99329 14.8013 1.4497 14.8013Z" fill="#888888"/>
</svg>
