<svg width="15" height="17" viewBox="0 0 15 17" fill="none" xmlns="http://www.w3.org/2000/svg">
<path d="M8.1361 1.7829C8.70946 1.22657 9.48758 0.871743 10.3294 0.782749C11.1712 0.693756 12.0209 0.876493 12.7244 1.29782L12.8727 1.39176L13.1387 1.56935C13.5017 1.81187 13.8011 2.122 14.0159 2.47814C14.2306 2.83428 14.3557 3.22786 14.3823 3.63146L14.3873 3.79438V14.5123C14.387 14.6993 14.3067 14.8792 14.1625 15.0152C14.0184 15.1512 13.8215 15.2331 13.6119 15.244C13.4024 15.255 13.196 15.1942 13.035 15.0742C12.8741 14.9541 12.7706 14.7838 12.7458 14.5981L12.7401 14.5123V3.79438C12.7396 3.61136 12.6965 3.43041 12.6134 3.26303C12.5303 3.09564 12.4091 2.94547 12.2574 2.82203L12.1504 2.74351L11.8843 2.56592C11.5806 2.36254 11.2152 2.24526 10.8357 2.22929C10.4562 2.21332 10.08 2.29942 9.75613 2.47639L9.63012 2.55124L10.2544 2.87266C10.9849 3.24836 11.5258 3.85937 11.7658 4.57982C12.0057 5.30027 11.9264 6.07528 11.5442 6.74519L11.4602 6.88242L11.0484 7.51793C10.9476 7.67362 10.7861 7.79092 10.5947 7.8476C10.4033 7.90428 10.1951 7.89638 10.0098 7.82542L9.92332 7.78652L2.7909 4.11727C2.61597 4.02743 2.48418 3.88346 2.42056 3.71273C2.35694 3.54199 2.36592 3.35638 2.4458 3.19115L2.48946 3.11483L2.90126 2.47932C3.32304 1.82859 4.00884 1.34677 4.8174 1.13311C5.62595 0.919446 6.49568 0.990219 7.24743 1.33085L7.40144 1.40423L8.1361 1.7829ZM3.47449 10.4005C3.66365 10.4978 3.80168 10.6581 3.85821 10.8461C3.91474 11.0341 3.88514 11.2344 3.77593 11.4029L3.36413 12.0384C3.25413 12.2056 3.07439 12.3272 2.86413 12.3768C2.65387 12.4263 2.43015 12.3997 2.2418 12.3028C2.05345 12.2059 1.91576 12.0466 1.85878 11.8596C1.8018 11.6726 1.83015 11.4731 1.93764 11.3046L2.34944 10.6691C2.45866 10.5005 2.63855 10.3776 2.84954 10.3272C3.06052 10.2768 3.28532 10.3032 3.47449 10.4005ZM5.31278 10.4988C5.41716 10.3355 5.58792 10.214 5.78984 10.1596C5.99176 10.1051 6.20944 10.1217 6.39799 10.2061C6.58654 10.2904 6.73158 10.436 6.8032 10.6128C6.87482 10.7896 6.86756 10.9842 6.78291 11.1564L6.73926 11.2327L6.32746 11.8682C6.22183 12.0292 6.05136 12.1484 5.85068 12.2014C5.65 12.2545 5.43418 12.2375 5.24707 12.1538C5.05997 12.0702 4.91563 11.9262 4.84339 11.7512C4.77115 11.5761 4.77642 11.3831 4.85815 11.2114L4.90097 11.1343L5.31278 10.4988ZM2.15837 8.02869C2.34753 8.12601 2.48555 8.28629 2.54208 8.47429C2.59861 8.66228 2.56902 8.86258 2.45981 9.03113L2.048 9.66664C1.99432 9.75078 1.92249 9.82462 1.83664 9.88391C1.7508 9.94321 1.65264 9.98679 1.54782 10.0121C1.443 10.0375 1.33358 10.0441 1.22587 10.0317C1.11816 10.0192 1.01428 9.98785 0.920217 9.93946C0.826152 9.89107 0.743759 9.82658 0.677781 9.7497C0.611804 9.67282 0.563544 9.58507 0.535781 9.49151C0.508019 9.39794 0.501301 9.30041 0.516015 9.20452C0.53073 9.10863 0.566585 9.01629 0.621518 8.9328L1.03332 8.29728C1.14254 8.12874 1.32243 8.00575 1.53342 7.95538C1.7444 7.90501 1.9692 7.93138 2.15837 8.02869ZM5.1217 7.85844C5.31086 7.95576 5.44889 8.11604 5.50542 8.30403C5.56195 8.49203 5.53235 8.69233 5.42314 8.86088L5.01134 9.49639C4.90134 9.66357 4.7216 9.78519 4.51134 9.83472C4.30108 9.88426 4.07736 9.85767 3.88901 9.76078C3.70067 9.66388 3.56298 9.50454 3.50599 9.31753C3.44901 9.13051 3.47736 8.931 3.58485 8.76254L3.99665 8.12703C4.10588 7.95848 4.28576 7.8355 4.49675 7.78513C4.70774 7.73476 4.93254 7.76113 5.1217 7.85844ZM6.95999 7.95678C7.06437 7.79342 7.23513 7.67198 7.43705 7.61751C7.63897 7.56303 7.85665 7.57968 8.0452 7.66401C8.23375 7.74834 8.37879 7.89392 8.45041 8.07074C8.52203 8.24756 8.51477 8.44212 8.43013 8.6143L8.38647 8.69062L7.97467 9.32614C7.86936 9.48786 7.69874 9.60767 7.49765 9.6611C7.29656 9.71453 7.08016 9.69755 6.89264 9.61364C6.70513 9.52972 6.56063 9.38519 6.48865 9.20956C6.41668 9.03393 6.42265 8.84045 6.50536 8.66861L6.54819 8.59229L6.95999 7.95678ZM3.80558 5.48664C3.99474 5.58395 4.13277 5.74424 4.1893 5.93223C4.24583 6.12022 4.21623 6.32053 4.10702 6.48908L3.69522 7.12459C3.64153 7.20872 3.5697 7.28256 3.48386 7.34186C3.39801 7.40115 3.29986 7.44474 3.19503 7.47009C3.09021 7.49545 2.98079 7.50208 2.87308 7.48961C2.76537 7.47713 2.66149 7.4458 2.56743 7.39741C2.47336 7.34902 2.39097 7.28453 2.32499 7.20765C2.25902 7.13077 2.21076 7.04302 2.18299 6.94945C2.15523 6.85589 2.14851 6.75835 2.16323 6.66247C2.17794 6.56658 2.2138 6.47423 2.26873 6.39074L2.68053 5.75523C2.78975 5.58668 2.96964 5.4637 3.18063 5.41333C3.39161 5.36296 3.61641 5.38933 3.80558 5.48664Z" fill="#888888"/>
</svg>
