<svg width="21" height="18" viewBox="0 0 21 18" fill="none" xmlns="http://www.w3.org/2000/svg">
<path fill-rule="evenodd" clip-rule="evenodd" d="M3.85437 8.54077V9.64155C3.85437 12.4089 3.85437 13.7929 4.81964 14.6523C5.07229 14.8761 5.37472 15.0503 5.70748 15.1638V16.2462C5.70748 16.55 5.98421 16.7966 6.32519 16.7966H7.14879C7.31262 16.7966 7.46973 16.7386 7.58558 16.6354C7.70142 16.5322 7.7665 16.3922 7.7665 16.2462V15.4779C8.50363 15.5123 9.38241 15.5123 10.4432 15.5123C11.504 15.5123 12.3828 15.5123 13.1199 15.4779V16.2462C13.1199 16.55 13.3967 16.7966 13.7376 16.7966H14.5612C14.7251 16.7966 14.8822 16.7386 14.998 16.6354C15.1139 16.5322 15.179 16.3922 15.179 16.2462V15.1638C15.5117 15.0503 15.8141 14.8761 16.0668 14.6523C17.0321 13.7929 17.0321 12.4089 17.0321 9.64155V8.54077H3.85437ZM14.5612 9.82501C14.7251 9.82501 14.8822 9.883 14.998 9.98621C15.1139 10.0894 15.179 10.2294 15.179 10.3754V11.8431C15.179 11.9891 15.1139 12.1291 14.998 12.2323C14.8822 12.3355 14.7251 12.3935 14.5612 12.3935C14.3974 12.3935 14.2403 12.3355 14.1245 12.2323C14.0086 12.1291 13.9435 11.9891 13.9435 11.8431V10.3754C13.9435 10.2294 14.0086 10.0894 14.1245 9.98621C14.2403 9.883 14.3974 9.82501 14.5612 9.82501Z" fill="#888888"/>
<path opacity="0.5" d="M3.85437 7.43989C3.85437 4.67254 3.85437 3.2885 4.81964 2.42916C5.7849 1.56983 7.3374 1.56909 10.4432 1.56909C13.549 1.56909 15.1024 1.56909 16.0668 2.42916C17.0312 3.28924 17.0321 4.67254 17.0321 7.43989V8.54066H3.85437V7.43989Z" fill="#888888"/>
<path d="M15.1789 5.23838C15.1789 5.0924 15.1138 4.95241 14.998 4.84919C14.8821 4.74598 14.725 4.68799 14.5612 4.68799C14.3974 4.68799 14.2402 4.74598 14.1244 4.84919C14.0086 4.95241 13.9435 5.0924 13.9435 5.23838V6.70607C13.9435 6.85205 14.0086 6.99204 14.1244 7.09526C14.2402 7.19847 14.3974 7.25646 14.5612 7.25646C14.725 7.25646 14.8821 7.19847 14.998 7.09526C15.1138 6.99204 15.1789 6.85205 15.1789 6.70607V5.23838Z" fill="#888888"/>
</svg>
