<svg width="14" height="15" viewBox="0 0 14 15" fill="none" xmlns="http://www.w3.org/2000/svg">
<path d="M13.5565 2.2662V9.12311C13.5567 9.19542 13.5401 9.26698 13.508 9.33337C13.4758 9.39975 13.4287 9.45953 13.3695 9.509C13.3103 9.55846 13.2403 9.59655 13.1639 9.62091C13.0875 9.64526 13.0063 9.65535 12.9253 9.65056C12.7731 9.63891 12.6314 9.57634 12.5289 9.47542C12.4263 9.37451 12.3705 9.24275 12.3725 9.10663V2.2662C12.3727 2.19377 12.3562 2.12209 12.3239 2.05561C12.2917 1.98913 12.2444 1.92929 12.185 1.8798C12.1257 1.83032 12.0555 1.79226 11.9789 1.76799C11.9023 1.74372 11.821 1.73377 11.7399 1.73875C11.5877 1.75104 11.4463 1.81412 11.3441 1.91535C11.2418 2.01658 11.1863 2.1485 11.1886 2.28466V10.9692C11.1886 11.0391 11.1574 11.1062 11.1019 11.1557C11.0464 11.2051 10.9711 11.2329 10.8926 11.2329H0.829187C0.750687 11.2329 0.675402 11.2051 0.619895 11.1557C0.564387 11.1062 0.533203 11.0391 0.533203 10.9692V2.2662C0.533203 1.84653 0.720306 1.44405 1.05335 1.1473C1.3864 0.850551 1.83811 0.683838 2.3091 0.683838H11.7806C12.2516 0.683838 12.7033 0.850551 13.0363 1.1473C13.3694 1.44405 13.5565 1.84653 13.5565 2.2662ZM10.8926 12.2878H0.829187C0.750687 12.2878 0.675402 12.3156 0.619895 12.3651C0.564387 12.4145 0.533203 12.4816 0.533203 12.5516V13.3427C0.533203 13.6225 0.657939 13.8908 0.879969 14.0887C1.102 14.2865 1.40314 14.3977 1.71714 14.3977H10.0047C10.3187 14.3977 10.6198 14.2865 10.8418 14.0887C11.0639 13.8908 11.1886 13.6225 11.1886 13.3427V12.5516C11.1886 12.4816 11.1574 12.4145 11.1019 12.3651C11.0464 12.3156 10.9711 12.2878 10.8926 12.2878Z" fill="#888888"/>
</svg>
