<svg width="18" height="14" viewBox="0 0 18 14" fill="none" xmlns="http://www.w3.org/2000/svg">
<path fill-rule="evenodd" clip-rule="evenodd" d="M8.44368 2.93851H4.39319V3.83087H6.07005V8.10921H7.28487V3.83087H8.78054L10.3948 8.10921H11.8575L13.8087 2.93851H12.4851L11.1583 6.99449H11.1303L9.80263 2.93851H8.44368ZM0.851685 0.770715C0.851685 0.576086 0.938457 0.389428 1.09291 0.251805C1.24737 0.114181 1.45686 0.0368652 1.67529 0.0368652H16.5002C16.7186 0.0368652 16.9281 0.114181 17.0826 0.251805C17.237 0.389428 17.3238 0.576086 17.3238 0.770715V10.3108C17.3238 10.5054 17.237 10.692 17.0826 10.8297C16.9281 10.9673 16.7186 11.0446 16.5002 11.0446H1.67529C1.45686 11.0446 1.24737 10.9673 1.09291 10.8297C0.938457 10.692 0.851685 10.5054 0.851685 10.3108V0.770715ZM5.79332 12.549C5.79332 12.2452 6.07664 11.9986 6.4135 11.9986H11.762C11.8433 11.9983 11.9239 12.0123 11.9991 12.0399C12.0744 12.0674 12.1428 12.1079 12.2004 12.159C12.258 12.2102 12.3037 12.2709 12.3349 12.3379C12.3661 12.4048 12.3822 12.4765 12.3822 12.549V13.0994H5.79332V12.549Z" fill="#888888"/>
</svg>
