<svg width="21" height="13" viewBox="0 0 21 13" fill="none" xmlns="http://www.w3.org/2000/svg">
<path d="M10.7323 12.5123C10.1557 12.5123 9.66845 12.335 9.27037 11.9803C8.87229 11.6256 8.67326 11.1914 8.67326 10.6777C8.67326 10.164 8.87229 9.7298 9.27037 9.3751C9.66845 9.02041 10.1557 8.84306 10.7323 8.84306C11.3088 8.84306 11.7961 9.02041 12.1942 9.3751C12.5922 9.7298 12.7913 10.164 12.7913 10.6777C12.7913 11.1914 12.5922 11.6256 12.1942 11.9803C11.7961 12.335 11.3088 12.5123 10.7323 12.5123ZM6.0789 8.36606L4.34932 6.78828C5.1592 6.06666 6.10992 5.49499 7.20147 5.07327C8.29302 4.65156 9.46996 4.44045 10.7323 4.43996C11.9946 4.43947 13.1718 4.65351 14.2639 5.08208C15.356 5.51065 16.3064 6.09161 17.1152 6.82497L15.3856 8.36606C14.7817 7.8279 14.0816 7.40594 13.2854 7.10017C12.4893 6.7944 11.6382 6.64151 10.7323 6.64151C9.8263 6.64151 8.97524 6.7944 8.17909 7.10017C7.38294 7.40594 6.68287 7.8279 6.0789 8.36606ZM2.57857 5.2472L0.848999 3.70611C2.11186 2.55642 3.58749 1.65745 5.27588 1.00922C6.96427 0.360982 8.78307 0.0368652 10.7323 0.0368652C12.6815 0.0368652 14.5003 0.360982 16.1887 1.00922C17.8771 1.65745 19.3527 2.55642 20.6155 3.70611L18.886 5.2472C17.829 4.30542 16.604 3.56864 15.211 3.03684C13.818 2.50505 12.3251 2.2389 10.7323 2.23841C9.13942 2.23792 7.64677 2.50407 6.25433 3.03684C4.86188 3.56962 3.63663 4.3064 2.57857 5.2472Z" fill="#888888"/>
</svg>
